<svg width="100%" height="100%" id="bus-icon" xmlns="http://www.w3.org/2000/svg" viewBox="0 0 200 200"><title>bus-icon</title><ellipse cx="99.9" cy="100" rx="99.9" ry="100" style="fill:blue"/><path d="M135.65,26.5H64.25A24.54,24.54,0,0,0,39.75,51v92.1a9.82,9.82,0,0,0,9.8,9.8h3.3a6.28,6.28,0,0,0-.3,1.9v11.4a7.34,7.34,0,0,0,7.3,7.3H64a7.34,7.34,0,0,0,7.3-7.3V154.8a6.28,6.28,0,0,0-.3-1.9h57.1a6.28,6.28,0,0,0-.3,1.9v11.4a7.34,7.34,0,0,0,7.3,7.3h4.1a7.34,7.34,0,0,0,7.3-7.3V154.8a6.28,6.28,0,0,0-.3-1.9h4.1a9.82,9.82,0,0,0,9.8-9.8v-92A24.6,24.6,0,0,0,135.65,26.5Zm-57.3,9.4h39.2v9.6H78.35Zm-15,108.2a10.5,10.5,0,1,1,10.5-10.5,10.5,10.5,0,0,1-10.5,10.5Zm72.8,0a10.5,10.5,0,1,1,10.5-10.5h0a10.5,10.5,0,0,1-10.5,10.5Zm10.7-29.7h-94V55.8h94Z" style="fill:#fff"/></svg>
