<svg id="bus-icon" data-name="Bus Icon" xmlns="http://www.w3.org/2000/svg" viewBox="0 0 199.82 200"><defs><style>.cls-1{fill:#fff;}</style></defs><title>bus-icon</title><ellipse class="cls-1" cx="99.91" cy="100" rx="99.91" ry="100"/><path d="M135.75,29.05H64.43A24.6,24.6,0,0,0,39.92,53.59v92.12a9.84,9.84,0,0,0,9.8,9.81H53a7.11,7.11,0,0,0-.27,1.91v11.45A7.34,7.34,0,0,0,60,176.2h4.07a7.34,7.34,0,0,0,7.32-7.32V157.43a7.52,7.52,0,0,0-.26-1.91h57.08a7.1,7.1,0,0,0-.26,1.91v11.45a7.33,7.33,0,0,0,7.31,7.32h4.08a7.33,7.33,0,0,0,7.31-7.32V157.43a7.52,7.52,0,0,0-.26-1.91h4.05a9.84,9.84,0,0,0,9.8-9.81V53.59A24.6,24.6,0,0,0,135.75,29.05ZM78.48,38.39h39.23V48H78.48Zm-15,108.21A10.5,10.5,0,1,1,74,136.1,10.5,10.5,0,0,1,63.49,146.6Zm72.83,0a10.5,10.5,0,1,1,10.48-10.5A10.49,10.49,0,0,1,136.32,146.6ZM147,116.92H53V58.33h94Z" transform="translate(-0.18)"/></svg>
